# xmcd CD database file
# Generated: Thu Aug 29 08:25:20 2002 by KSCD
# 
# Track frame offsets:
#       150
#       16682
#       29523
#       45697
#       60086
#       81811
#       100923
#       118484
#       135858
#       151446
#       170310
#       187846
#       205574
#       222807
#       238947
#       257724
#       274241
#       296345
#       314845
#       332308
#
# Disc length: 4674 seconds
#
# Revision: 1
# Processed by: cddbd v1.4PL0 Copyright (c) Steve Scherf et al.
# Submitted via: Kscd 1.3.3
#
DISCID=10124014
DTITLE=Zeljko Samardzic - Sentimentalan Covek
DYEAR=1900
DGENRE=
TTITLE0=Ne Trebam Ti Vise Ja
TTITLE1=Zivim U Blizini
TTITLE2=Mogu Jos Da Poludim
TTITLE3=Bezobrazno Zelene
TTITLE4=Sentimentalan Covek
TTITLE5=Prava Ljubav Godine Ne Broji
TTITLE6=Predji Preko Svega
TTITLE7=Dajte Jednu Losu
TTITLE8=Detelina S Cetiri Lista
TTITLE9=Ko Si Ti Da Govoris O Ljubavi
TTITLE10=Sve Je Surovo
TTITLE11=Ako Odes
TTITLE12=Mirno Spavaj Moj Pjevacu
TTITLE13=Nema Vise Nicega
TTITLE14=Andjele Moj
TTITLE15=Nemam Ja Toliko Kofera
TTITLE16=Plakao Sam Kao Zena
TTITLE17=Crna Vrana
TTITLE18=Sve Je Moje Tvoje
TTITLE19=Sta Se Pjeva U Kafani
EXTD=
EXTT0=
EXTT1=
EXTT2=
EXTT3=
EXTT4=
EXTT5=
EXTT6=
EXTT7=
EXTT8=
EXTT9=
EXTT10=
EXTT11=
EXTT12=
EXTT13=
EXTT14=
EXTT15=
EXTT16=
EXTT17=
EXTT18=
EXTT19=
PLAYORDER=
